<?xml version="1.0" encoding="utf-8"?>
<!-- Generator: Adobe Illustrator 17.0.2, SVG Export Plug-In . SVG Version: 6.00 Build 0)  -->
<!DOCTYPE svg PUBLIC "-//W3C//DTD SVG 1.1//EN" "http://www.w3.org/Graphics/SVG/1.1/DTD/svg11.dtd">
<svg version="1.1" id="Layer_1" xmlns:sketch="http://www.bohemiancoding.com/sketch/ns"
	 xmlns="http://www.w3.org/2000/svg" xmlns:xlink="http://www.w3.org/1999/xlink" x="0px" y="0px" width="54px" height="40px"
	 viewBox="0 0 54 40" enable-background="new 0 0 54 40" xml:space="preserve">
<title>checkmark</title>
<description>Created with Sketch (http://www.bohemiancoding.com/sketch)</description>
<g id="Page-1" sketch:type="MSPage">
	<path id="Imported-Layers" sketch:type="MSShapeGroup" fill="#6c6e78" d="M0.628,24.128c-0.838-0.83-0.836-2.19,0.004-3.019
		l5.399-5.333c0.84-0.83,2.215-0.83,3.056-0.001l8.768,8.64c0.841,0.829,2.215,0.827,3.054-0.003L44.935,0.625
		c0.839-0.83,2.215-0.835,3.058-0.007l5.372,5.267c0.843,0.827,0.847,2.183,0.007,3.014L24.235,37.745
		c-0.839,0.83-2.497,1.51-3.685,1.51h-2.516c-1.188,0-2.845-0.681-3.684-1.512L0.628,24.128"/>
</g>
</svg>
