<?xml version="1.0" encoding="utf-8"?>
<!-- Generator: Adobe Illustrator 17.0.2, SVG Export Plug-In . SVG Version: 6.00 Build 0)  -->
<!DOCTYPE svg PUBLIC "-//W3C//DTD SVG 1.1//EN" "http://www.w3.org/Graphics/SVG/1.1/DTD/svg11.dtd">
<svg version="1.1" id="Layer_1" xmlns="http://www.w3.org/2000/svg" xmlns:xlink="http://www.w3.org/1999/xlink" x="0px" y="0px"
	 width="275.494px" height="96.134px" viewBox="0 0 275.494 96.134" enable-background="new 0 0 275.494 96.134"
	 xml:space="preserve">
<path fill="#F0F3F6" d="M35.139,46.939c0,9.622-5.189,15.893-14.595,15.893c-2.055,0-4.002-0.323-5.731-0.864v-29.41
	c1.946-0.648,4-1.081,6.054-1.081C28.435,31.476,35.139,36.344,35.139,46.939 M49.952,46.29c0-17.733-10.704-27.355-27.247-27.355
	c-7.135,0-15.244,1.622-22.705,4.217V95.27c2.486,0.541,4.973,0.864,7.569,0.864c2.378,0,4.865-0.323,7.244-0.864V74.835
	c1.514,0.216,3.568,0.541,6.054,0.541C39.355,75.376,49.952,64.239,49.952,46.29"/>
<path fill="#F0F3F6" d="M261.546,41.75h-20.218c1.19-7.786,5.081-11.245,10.379-11.245C257.762,30.504,261.546,34.829,261.546,41.75
	 M275.494,43.263c0-14.164-9.406-24.328-23.355-24.328c-15.462,0-25.626,10.92-25.626,28.545c0,17.516,10.812,27.896,27.355,27.896
	c6.595,0,12.867-0.975,18.597-3.352c0-4.325-0.972-7.137-2.919-10.812c-3.459,1.297-8.325,2.487-12.541,2.487
	c-10.272,0-14.706-4-15.786-11.786h33.517C275.386,48.885,275.494,45.966,275.494,43.263"/>
<path fill="#F0F3F6" d="M57.52,13.745c4.541,0.864,9.947,1.081,15.244,0V0.77c-4.649-0.972-9.948-1.08-15.244,0V13.745z"/>
<path fill="#F0F3F6" d="M57.52,20.232v53.846c4.649,1.082,10.272,1.082,15.137,0V20.232C67.792,21.314,62.169,21.314,57.52,20.232"
	/>
<path fill="#F0F3F6" d="M165.642,63.373c-1.947,0.649-4.218,0.975-6.379,0.975c-6.705,0-10.056-2.813-10.056-7.138
	c0-4.649,3.676-7.676,11.353-7.676c1.73,0,3.459,0.216,5.082,0.756V63.373z M180.022,72.24V40.452
	c0-13.84-7.137-21.517-23.787-21.517c-6.271,0-12.435,0.973-17.191,3.568v0.54c0,4.108,1.08,7.461,3.026,10.164
	c3.894-1.839,7.677-2.703,12.219-2.703c7.892,0,11.353,2.378,11.353,9.731c-1.515-0.216-3.568-0.324-6.055-0.324
	c-15.895,0-24.004,7.461-24.004,17.841c0,11.028,8.001,17.625,23.139,17.625C166.398,75.376,175.264,73.753,180.022,72.24"/>
<path fill="#F0F3F6" d="M224.135,72.889c0.541-4.109-0.108-7.569-1.73-10.489c-1.946,0.649-4.325,0.975-6.487,0.975
	c-4.866,0-7.027-2.38-7.027-9.733V31.694h13.299c0.973-3.892,0.973-8.001,0-11.677h-13.299V2.393
	c-4.974-1.081-10.164-1.081-14.922,0v17.624h-8.649c-0.973,3.676-0.973,7.785,0,11.677h8.649v21.733
	c0,13.839,6.055,21.517,20.003,21.517C218.513,74.944,221.972,74.186,224.135,72.889"/>
<path fill="#98D5E9" d="M110.39,33.749l-3.027,11.352h3.136c10.703,0,14.163-5.622,17.948-14.596l4.433-10.487
	C117.96,18.719,113.527,21.746,110.39,33.749"/>
<path fill="#FFC700" d="M79.143,20.016l4.434,10.488c3.783,8.973,7.244,14.597,17.948,14.597h3.136l-3.028-11.354
	C98.498,21.747,94.064,18.719,79.143,20.016"/>
<path fill="#FF8300" d="M101.633,60.346l3.027-11.353h-3.136c-10.703,0-14.163,5.623-17.948,14.597l-4.433,10.487
	C94.063,75.376,98.497,72.349,101.633,60.346"/>
<path fill="#00A1DF" d="M132.881,74.077l-4.434-10.488c-3.783-8.973-7.244-14.596-17.948-14.596h-3.136l3.028,11.353
	C113.525,72.348,117.959,75.375,132.881,74.077"/>
</svg>
