<svg height="138" version="1.1" width="138" xmlns="http://www.w3.org/2000/svg" viewBox="0 0 138 138" style="overflow: hidden; position: relative;"><desc style="-webkit-tap-highlight-color: rgba(0, 0, 0, 0);">Created with Raphaël 2.1.0</desc><defs style="-webkit-tap-highlight-color: rgba(0, 0, 0, 0);"><linearGradient id="61190-_AD6C82-_BAE4B1" x1="0" y1="1" x2="6.123031769111886e-17" y2="0" gradientTransform="matrix(1,0,0,1,0,0)" style="-webkit-tap-highlight-color: rgba(0, 0, 0, 0);"><stop offset="0%" stop-color="#ad6c82" style="-webkit-tap-highlight-color: rgba(0, 0, 0, 0);"></stop><stop offset="100%" stop-color="#bae4b1" style="-webkit-tap-highlight-color: rgba(0, 0, 0, 0);"></stop></linearGradient><linearGradient id="61290-_ADB5A9-_24120E" x1="0" y1="1" x2="6.123031769111886e-17" y2="0" gradientTransform="matrix(1,0,0,1,0,0)" style="-webkit-tap-highlight-color: rgba(0, 0, 0, 0);"><stop offset="0%" stop-color="#adb5a9" style="-webkit-tap-highlight-color: rgba(0, 0, 0, 0);"></stop><stop offset="100%" stop-color="#24120e" style="-webkit-tap-highlight-color: rgba(0, 0, 0, 0);"></stop></linearGradient></defs><circle cx="69" cy="69" r="69" fill="url(#61190-_AD6C82-_BAE4B1)" stroke="none" opacity="1" fill-opacity="1" style="-webkit-tap-highlight-color: rgba(0, 0, 0, 0); opacity: 1; fill-opacity: 1;"></circle><path fill="#eef8ac" stroke="#eef8ac" d="M109.06171650548761,29.737476797433217C105.60251650548761,26.988676797433218,100.57851650548761,27.564676797433215,97.8201165054876,31.020676797433218C97.8201165054876,31.020676797433218,65.70811650548761,71.41107679743322,65.70811650548761,71.41107679743322C65.70811650548761,71.41107679743322,54.48251650548761,57.28627679743322,54.48251650548761,57.28627679743322C51.733716505487614,53.827076797433214,46.70331650548761,53.254276797433214,43.24091650548761,56.003076797433216C39.78171650548761,58.75187679743322,39.205716505487615,63.78547679743322,41.95771650548761,67.24467679743321C41.95771650548761,67.24467679743321,59.44571650548761,89.24467679743321,59.44571650548761,89.24467679743321C60.96251650548761,91.15827679743322,63.269716505487615,92.26547679743321,65.70811650548761,92.26547679743321C68.14651650548761,92.26547679743321,70.4505165054876,91.14867679743321,71.97051650548761,89.24467679743321C71.97051650548761,89.24467679743321,110.34491650548762,40.97907679743322,110.34491650548762,40.97907679743322C113.09691650548761,37.51987679743321,112.52091650548762,32.48627679743322,109.06171650548761,29.737476797433217C109.06171650548761,29.737476797433217,109.06171650548761,29.737476797433217,109.06171650548761,29.737476797433217M92.90811650548761,98.39987679743322C92.90811650548761,98.39987679743322,38.50811650548761,98.39987679743322,38.50811650548761,98.39987679743322C38.50811650548761,98.39987679743322,38.50811650548761,43.99987679743322,38.50811650548761,43.99987679743322C38.50811650548761,43.99987679743322,79.32731650548762,43.99987679743322,79.32731650548762,43.99987679743322C79.32731650548762,43.99987679743322,86.9593165054876,34.399876797433215,86.9593165054876,34.399876797433215C86.9593165054876,34.399876797433215,33.70811650548761,34.399876797433215,33.70811650548761,34.399876797433215C31.055316505487607,34.399876797433215,28.908116505487605,36.54707679743322,28.908116505487605,39.19987679743322C28.908116505487605,39.19987679743322,28.908116505487605,103.19987679743322,28.908116505487605,103.19987679743322C28.908116505487605,105.84947679743323,31.055316505487607,107.99987679743322,33.70811650548761,107.99987679743322C33.70811650548761,107.99987679743322,97.70811650548761,107.99987679743322,97.70811650548761,107.99987679743322C100.35771650548762,107.99987679743322,102.5081165054876,105.84947679743323,102.5081165054876,103.19987679743322C102.5081165054876,103.19987679743322,102.5081165054876,61.12307679743322,102.5081165054876,61.12307679743322C102.5081165054876,61.12307679743322,92.90811650548761,73.19667679743323,92.90811650548761,73.19667679743323C92.90811650548761,73.19667679743323,92.90811650548761,98.39987679743322,92.90811650548761,98.39987679743322C92.90811650548761,98.39987679743322,92.90811650548761,98.39987679743322,92.90811650548761,98.39987679743322" stroke-linejoin="round" stroke-linecap="round" stroke-width="2" opacity="0.091" transform="matrix(1,0,0,1,0,0)" style="-webkit-tap-highlight-color: rgba(0, 0, 0, 0); stroke-linejoin: round; stroke-linecap: round; opacity: 0.091;"></path><path fill="#eef8ac" stroke="#eef8ac" d="M109.06171650548761,29.737476797433217C105.60251650548761,26.988676797433218,100.57851650548761,27.564676797433215,97.8201165054876,31.020676797433218C97.8201165054876,31.020676797433218,65.70811650548761,71.41107679743322,65.70811650548761,71.41107679743322C65.70811650548761,71.41107679743322,54.48251650548761,57.28627679743322,54.48251650548761,57.28627679743322C51.733716505487614,53.827076797433214,46.70331650548761,53.254276797433214,43.24091650548761,56.003076797433216C39.78171650548761,58.75187679743322,39.205716505487615,63.78547679743322,41.95771650548761,67.24467679743321C41.95771650548761,67.24467679743321,59.44571650548761,89.24467679743321,59.44571650548761,89.24467679743321C60.96251650548761,91.15827679743322,63.269716505487615,92.26547679743321,65.70811650548761,92.26547679743321C68.14651650548761,92.26547679743321,70.4505165054876,91.14867679743321,71.97051650548761,89.24467679743321C71.97051650548761,89.24467679743321,110.34491650548762,40.97907679743322,110.34491650548762,40.97907679743322C113.09691650548761,37.51987679743321,112.52091650548762,32.48627679743322,109.06171650548761,29.737476797433217C109.06171650548761,29.737476797433217,109.06171650548761,29.737476797433217,109.06171650548761,29.737476797433217M92.90811650548761,98.39987679743322C92.90811650548761,98.39987679743322,38.50811650548761,98.39987679743322,38.50811650548761,98.39987679743322C38.50811650548761,98.39987679743322,38.50811650548761,43.99987679743322,38.50811650548761,43.99987679743322C38.50811650548761,43.99987679743322,79.32731650548762,43.99987679743322,79.32731650548762,43.99987679743322C79.32731650548762,43.99987679743322,86.9593165054876,34.399876797433215,86.9593165054876,34.399876797433215C86.9593165054876,34.399876797433215,33.70811650548761,34.399876797433215,33.70811650548761,34.399876797433215C31.055316505487607,34.399876797433215,28.908116505487605,36.54707679743322,28.908116505487605,39.19987679743322C28.908116505487605,39.19987679743322,28.908116505487605,103.19987679743322,28.908116505487605,103.19987679743322C28.908116505487605,105.84947679743323,31.055316505487607,107.99987679743322,33.70811650548761,107.99987679743322C33.70811650548761,107.99987679743322,97.70811650548761,107.99987679743322,97.70811650548761,107.99987679743322C100.35771650548762,107.99987679743322,102.5081165054876,105.84947679743323,102.5081165054876,103.19987679743322C102.5081165054876,103.19987679743322,102.5081165054876,61.12307679743322,102.5081165054876,61.12307679743322C102.5081165054876,61.12307679743322,92.90811650548761,73.19667679743323,92.90811650548761,73.19667679743323C92.90811650548761,73.19667679743323,92.90811650548761,98.39987679743322,92.90811650548761,98.39987679743322C92.90811650548761,98.39987679743322,92.90811650548761,98.39987679743322,92.90811650548761,98.39987679743322" stroke-linejoin="round" stroke-linecap="round" stroke-width="4" opacity="0.091" transform="matrix(1,0,0,1,0,0)" style="-webkit-tap-highlight-color: rgba(0, 0, 0, 0); stroke-linejoin: round; stroke-linecap: round; opacity: 0.091;"></path><path fill="#eef8ac" stroke="#eef8ac" d="M109.06171650548761,29.737476797433217C105.60251650548761,26.988676797433218,100.57851650548761,27.564676797433215,97.8201165054876,31.020676797433218C97.8201165054876,31.020676797433218,65.70811650548761,71.41107679743322,65.70811650548761,71.41107679743322C65.70811650548761,71.41107679743322,54.48251650548761,57.28627679743322,54.48251650548761,57.28627679743322C51.733716505487614,53.827076797433214,46.70331650548761,53.254276797433214,43.24091650548761,56.003076797433216C39.78171650548761,58.75187679743322,39.205716505487615,63.78547679743322,41.95771650548761,67.24467679743321C41.95771650548761,67.24467679743321,59.44571650548761,89.24467679743321,59.44571650548761,89.24467679743321C60.96251650548761,91.15827679743322,63.269716505487615,92.26547679743321,65.70811650548761,92.26547679743321C68.14651650548761,92.26547679743321,70.4505165054876,91.14867679743321,71.97051650548761,89.24467679743321C71.97051650548761,89.24467679743321,110.34491650548762,40.97907679743322,110.34491650548762,40.97907679743322C113.09691650548761,37.51987679743321,112.52091650548762,32.48627679743322,109.06171650548761,29.737476797433217C109.06171650548761,29.737476797433217,109.06171650548761,29.737476797433217,109.06171650548761,29.737476797433217M92.90811650548761,98.39987679743322C92.90811650548761,98.39987679743322,38.50811650548761,98.39987679743322,38.50811650548761,98.39987679743322C38.50811650548761,98.39987679743322,38.50811650548761,43.99987679743322,38.50811650548761,43.99987679743322C38.50811650548761,43.99987679743322,79.32731650548762,43.99987679743322,79.32731650548762,43.99987679743322C79.32731650548762,43.99987679743322,86.9593165054876,34.399876797433215,86.9593165054876,34.399876797433215C86.9593165054876,34.399876797433215,33.70811650548761,34.399876797433215,33.70811650548761,34.399876797433215C31.055316505487607,34.399876797433215,28.908116505487605,36.54707679743322,28.908116505487605,39.19987679743322C28.908116505487605,39.19987679743322,28.908116505487605,103.19987679743322,28.908116505487605,103.19987679743322C28.908116505487605,105.84947679743323,31.055316505487607,107.99987679743322,33.70811650548761,107.99987679743322C33.70811650548761,107.99987679743322,97.70811650548761,107.99987679743322,97.70811650548761,107.99987679743322C100.35771650548762,107.99987679743322,102.5081165054876,105.84947679743323,102.5081165054876,103.19987679743322C102.5081165054876,103.19987679743322,102.5081165054876,61.12307679743322,102.5081165054876,61.12307679743322C102.5081165054876,61.12307679743322,92.90811650548761,73.19667679743323,92.90811650548761,73.19667679743323C92.90811650548761,73.19667679743323,92.90811650548761,98.39987679743322,92.90811650548761,98.39987679743322C92.90811650548761,98.39987679743322,92.90811650548761,98.39987679743322,92.90811650548761,98.39987679743322" stroke-linejoin="round" stroke-linecap="round" stroke-width="6" opacity="0.091" transform="matrix(1,0,0,1,0,0)" style="-webkit-tap-highlight-color: rgba(0, 0, 0, 0); stroke-linejoin: round; stroke-linecap: round; opacity: 0.091;"></path><path fill="#eef8ac" stroke="#eef8ac" d="M109.06171650548761,29.737476797433217C105.60251650548761,26.988676797433218,100.57851650548761,27.564676797433215,97.8201165054876,31.020676797433218C97.8201165054876,31.020676797433218,65.70811650548761,71.41107679743322,65.70811650548761,71.41107679743322C65.70811650548761,71.41107679743322,54.48251650548761,57.28627679743322,54.48251650548761,57.28627679743322C51.733716505487614,53.827076797433214,46.70331650548761,53.254276797433214,43.24091650548761,56.003076797433216C39.78171650548761,58.75187679743322,39.205716505487615,63.78547679743322,41.95771650548761,67.24467679743321C41.95771650548761,67.24467679743321,59.44571650548761,89.24467679743321,59.44571650548761,89.24467679743321C60.96251650548761,91.15827679743322,63.269716505487615,92.26547679743321,65.70811650548761,92.26547679743321C68.14651650548761,92.26547679743321,70.4505165054876,91.14867679743321,71.97051650548761,89.24467679743321C71.97051650548761,89.24467679743321,110.34491650548762,40.97907679743322,110.34491650548762,40.97907679743322C113.09691650548761,37.51987679743321,112.52091650548762,32.48627679743322,109.06171650548761,29.737476797433217C109.06171650548761,29.737476797433217,109.06171650548761,29.737476797433217,109.06171650548761,29.737476797433217M92.90811650548761,98.39987679743322C92.90811650548761,98.39987679743322,38.50811650548761,98.39987679743322,38.50811650548761,98.39987679743322C38.50811650548761,98.39987679743322,38.50811650548761,43.99987679743322,38.50811650548761,43.99987679743322C38.50811650548761,43.99987679743322,79.32731650548762,43.99987679743322,79.32731650548762,43.99987679743322C79.32731650548762,43.99987679743322,86.9593165054876,34.399876797433215,86.9593165054876,34.399876797433215C86.9593165054876,34.399876797433215,33.70811650548761,34.399876797433215,33.70811650548761,34.399876797433215C31.055316505487607,34.399876797433215,28.908116505487605,36.54707679743322,28.908116505487605,39.19987679743322C28.908116505487605,39.19987679743322,28.908116505487605,103.19987679743322,28.908116505487605,103.19987679743322C28.908116505487605,105.84947679743323,31.055316505487607,107.99987679743322,33.70811650548761,107.99987679743322C33.70811650548761,107.99987679743322,97.70811650548761,107.99987679743322,97.70811650548761,107.99987679743322C100.35771650548762,107.99987679743322,102.5081165054876,105.84947679743323,102.5081165054876,103.19987679743322C102.5081165054876,103.19987679743322,102.5081165054876,61.12307679743322,102.5081165054876,61.12307679743322C102.5081165054876,61.12307679743322,92.90811650548761,73.19667679743323,92.90811650548761,73.19667679743323C92.90811650548761,73.19667679743323,92.90811650548761,98.39987679743322,92.90811650548761,98.39987679743322C92.90811650548761,98.39987679743322,92.90811650548761,98.39987679743322,92.90811650548761,98.39987679743322" stroke-linejoin="round" stroke-linecap="round" stroke-width="8" opacity="0.091" transform="matrix(1,0,0,1,0,0)" style="-webkit-tap-highlight-color: rgba(0, 0, 0, 0); stroke-linejoin: round; stroke-linecap: round; opacity: 0.091;"></path><path fill="#eef8ac" stroke="#eef8ac" d="M109.06171650548761,29.737476797433217C105.60251650548761,26.988676797433218,100.57851650548761,27.564676797433215,97.8201165054876,31.020676797433218C97.8201165054876,31.020676797433218,65.70811650548761,71.41107679743322,65.70811650548761,71.41107679743322C65.70811650548761,71.41107679743322,54.48251650548761,57.28627679743322,54.48251650548761,57.28627679743322C51.733716505487614,53.827076797433214,46.70331650548761,53.254276797433214,43.24091650548761,56.003076797433216C39.78171650548761,58.75187679743322,39.205716505487615,63.78547679743322,41.95771650548761,67.24467679743321C41.95771650548761,67.24467679743321,59.44571650548761,89.24467679743321,59.44571650548761,89.24467679743321C60.96251650548761,91.15827679743322,63.269716505487615,92.26547679743321,65.70811650548761,92.26547679743321C68.14651650548761,92.26547679743321,70.4505165054876,91.14867679743321,71.97051650548761,89.24467679743321C71.97051650548761,89.24467679743321,110.34491650548762,40.97907679743322,110.34491650548762,40.97907679743322C113.09691650548761,37.51987679743321,112.52091650548762,32.48627679743322,109.06171650548761,29.737476797433217C109.06171650548761,29.737476797433217,109.06171650548761,29.737476797433217,109.06171650548761,29.737476797433217M92.90811650548761,98.39987679743322C92.90811650548761,98.39987679743322,38.50811650548761,98.39987679743322,38.50811650548761,98.39987679743322C38.50811650548761,98.39987679743322,38.50811650548761,43.99987679743322,38.50811650548761,43.99987679743322C38.50811650548761,43.99987679743322,79.32731650548762,43.99987679743322,79.32731650548762,43.99987679743322C79.32731650548762,43.99987679743322,86.9593165054876,34.399876797433215,86.9593165054876,34.399876797433215C86.9593165054876,34.399876797433215,33.70811650548761,34.399876797433215,33.70811650548761,34.399876797433215C31.055316505487607,34.399876797433215,28.908116505487605,36.54707679743322,28.908116505487605,39.19987679743322C28.908116505487605,39.19987679743322,28.908116505487605,103.19987679743322,28.908116505487605,103.19987679743322C28.908116505487605,105.84947679743323,31.055316505487607,107.99987679743322,33.70811650548761,107.99987679743322C33.70811650548761,107.99987679743322,97.70811650548761,107.99987679743322,97.70811650548761,107.99987679743322C100.35771650548762,107.99987679743322,102.5081165054876,105.84947679743323,102.5081165054876,103.19987679743322C102.5081165054876,103.19987679743322,102.5081165054876,61.12307679743322,102.5081165054876,61.12307679743322C102.5081165054876,61.12307679743322,92.90811650548761,73.19667679743323,92.90811650548761,73.19667679743323C92.90811650548761,73.19667679743323,92.90811650548761,98.39987679743322,92.90811650548761,98.39987679743322C92.90811650548761,98.39987679743322,92.90811650548761,98.39987679743322,92.90811650548761,98.39987679743322" stroke-linejoin="round" stroke-linecap="round" stroke-width="10" opacity="0.091" transform="matrix(1,0,0,1,0,0)" style="-webkit-tap-highlight-color: rgba(0, 0, 0, 0); stroke-linejoin: round; stroke-linecap: round; opacity: 0.091;"></path><path fill="#eef8ac" stroke="#eef8ac" d="M109.06171650548761,29.737476797433217C105.60251650548761,26.988676797433218,100.57851650548761,27.564676797433215,97.8201165054876,31.020676797433218C97.8201165054876,31.020676797433218,65.70811650548761,71.41107679743322,65.70811650548761,71.41107679743322C65.70811650548761,71.41107679743322,54.48251650548761,57.28627679743322,54.48251650548761,57.28627679743322C51.733716505487614,53.827076797433214,46.70331650548761,53.254276797433214,43.24091650548761,56.003076797433216C39.78171650548761,58.75187679743322,39.205716505487615,63.78547679743322,41.95771650548761,67.24467679743321C41.95771650548761,67.24467679743321,59.44571650548761,89.24467679743321,59.44571650548761,89.24467679743321C60.96251650548761,91.15827679743322,63.269716505487615,92.26547679743321,65.70811650548761,92.26547679743321C68.14651650548761,92.26547679743321,70.4505165054876,91.14867679743321,71.97051650548761,89.24467679743321C71.97051650548761,89.24467679743321,110.34491650548762,40.97907679743322,110.34491650548762,40.97907679743322C113.09691650548761,37.51987679743321,112.52091650548762,32.48627679743322,109.06171650548761,29.737476797433217C109.06171650548761,29.737476797433217,109.06171650548761,29.737476797433217,109.06171650548761,29.737476797433217M92.90811650548761,98.39987679743322C92.90811650548761,98.39987679743322,38.50811650548761,98.39987679743322,38.50811650548761,98.39987679743322C38.50811650548761,98.39987679743322,38.50811650548761,43.99987679743322,38.50811650548761,43.99987679743322C38.50811650548761,43.99987679743322,79.32731650548762,43.99987679743322,79.32731650548762,43.99987679743322C79.32731650548762,43.99987679743322,86.9593165054876,34.399876797433215,86.9593165054876,34.399876797433215C86.9593165054876,34.399876797433215,33.70811650548761,34.399876797433215,33.70811650548761,34.399876797433215C31.055316505487607,34.399876797433215,28.908116505487605,36.54707679743322,28.908116505487605,39.19987679743322C28.908116505487605,39.19987679743322,28.908116505487605,103.19987679743322,28.908116505487605,103.19987679743322C28.908116505487605,105.84947679743323,31.055316505487607,107.99987679743322,33.70811650548761,107.99987679743322C33.70811650548761,107.99987679743322,97.70811650548761,107.99987679743322,97.70811650548761,107.99987679743322C100.35771650548762,107.99987679743322,102.5081165054876,105.84947679743323,102.5081165054876,103.19987679743322C102.5081165054876,103.19987679743322,102.5081165054876,61.12307679743322,102.5081165054876,61.12307679743322C102.5081165054876,61.12307679743322,92.90811650548761,73.19667679743323,92.90811650548761,73.19667679743323C92.90811650548761,73.19667679743323,92.90811650548761,98.39987679743322,92.90811650548761,98.39987679743322C92.90811650548761,98.39987679743322,92.90811650548761,98.39987679743322,92.90811650548761,98.39987679743322" stroke-linejoin="round" stroke-linecap="round" stroke-width="12" opacity="0.091" transform="matrix(1,0,0,1,0,0)" style="-webkit-tap-highlight-color: rgba(0, 0, 0, 0); stroke-linejoin: round; stroke-linecap: round; opacity: 0.091;"></path><path fill="url(#61290-_ADB5A9-_24120E)" stroke="none" d="M29.548,3.043C28.467,2.184,26.897,2.364,26.034999999999997,3.444L16,16.066L12.492,11.652C11.633000000000001,10.571,10.061,10.392,8.979000000000001,11.251C7.8980000000000015,12.11,7.718000000000001,13.683,8.578000000000001,14.764L14.043000000000001,21.639C14.517000000000001,22.237,15.238000000000001,22.583,16,22.583C16.762,22.583,17.482,22.233999999999998,17.957,21.639L29.949,6.556C30.809,5.475,30.629,3.902,29.548,3.043ZM24.5,24.5H7.5V7.5H20.256L22.641,4.5H6C5.171,4.5,4.5,5.171,4.5,6V26C4.5,26.828,5.171,27.5,6,27.5H26C26.828,27.5,27.5,26.828,27.5,26V12.851L24.5,16.624000000000002V24.5Z" opacity="1" fill-opacity="1" transform="matrix(3.2,0,0,3.2,14.5081,19.9999)" stroke-width="0.3125" style="-webkit-tap-highlight-color: rgba(0, 0, 0, 0); opacity: 1; fill-opacity: 1;"></path></svg>