<svg height="138" version="1.1" width="138" xmlns="http://www.w3.org/2000/svg" viewBox="0 0 138 138" style="overflow: hidden; position: relative;"><desc style="-webkit-tap-highlight-color: rgba(0, 0, 0, 0);">Created with Raphaël 2.1.0</desc><defs style="-webkit-tap-highlight-color: rgba(0, 0, 0, 0);"><linearGradient id="980490-_FA0808-_D9D9D9" x1="0" y1="1" x2="6.123031769111886e-17" y2="0" gradientTransform="matrix(1,0,0,1,0,0)" style="-webkit-tap-highlight-color: rgba(0, 0, 0, 0);"><stop offset="0%" stop-color="#fa0808" style="-webkit-tap-highlight-color: rgba(0, 0, 0, 0);"></stop><stop offset="100%" stop-color="#d9d9d9" style="-webkit-tap-highlight-color: rgba(0, 0, 0, 0);"></stop></linearGradient></defs><path fill="#080504" stroke="#080504" d="M70,13.770800000000008C39.49740000000001,13.770800000000008,14.770800000000008,38.49740000000001,14.770800000000008,69C14.770800000000008,99.5026,39.49740000000001,124.22919999999999,70,124.22919999999999C100.5026,124.22919999999999,125.22919999999999,99.5026,125.22919999999999,69C125.22919999999999,38.49740000000001,100.5026,13.770800000000008,70,13.770800000000008C70,13.770800000000008,70,13.770800000000008,70,13.770800000000008M74.769,98.94399999999999C74.769,98.94399999999999,74.769,106.7226,74.769,106.7226C74.769,106.7226,67.3286,106.7226,67.3286,106.7226C67.3286,106.7226,67.3286,99.03139999999999,67.3286,99.03139999999999C55.119200000000006,97.3594,49.7688,87.32740000000001,49.7688,87.32740000000001C49.7688,87.32740000000001,57.3764,80.97,57.3764,80.97C57.3764,80.97,62.225199999999994,89.41739999999999,71.00319999999999,89.41739999999999C75.852,89.41739999999999,79.53039999999999,86.822,79.53039999999999,82.3912C79.53039999999999,72.021,51.60419999999999,73.27879999999999,51.60419999999999,54.047C51.60419999999999,45.687000000000005,58.20859999999999,39.664,67.32479999999998,38.2428C67.32479999999998,38.2428,67.32479999999998,30.46420000000001,67.32479999999998,30.46420000000001C67.32479999999998,30.46420000000001,74.7652,30.46420000000001,74.7652,30.46420000000001C74.7652,30.46420000000001,74.7652,38.239000000000004,74.7652,38.239000000000004C81.1188,39.07500000000001,88.6428,42.419000000000004,88.6428,49.61240000000001C88.6428,49.61240000000001,88.6428,55.13000000000001,88.6428,55.13000000000001C88.6428,55.13000000000001,78.77799999999999,55.13000000000001,78.77799999999999,55.13000000000001C78.77799999999999,55.13000000000001,78.77799999999999,52.454800000000006,78.77799999999999,52.454800000000006C78.77799999999999,49.696,75.26299999999998,47.85680000000001,71.3338,47.85680000000001C66.31779999999999,47.85680000000001,62.63939999999999,50.36480000000001,62.63939999999999,53.876000000000005C62.63939999999999,64.4932,90.56559999999999,61.90160000000001,90.56559999999999,82.053C90.5694,90.3332,84.38300000000001,97.52280000000002,74.769,98.94399999999999C74.769,98.94399999999999,74.769,98.94399999999999,74.769,98.94399999999999" stroke-linejoin="round" stroke-linecap="round" stroke-width="2" opacity="0.08" transform="matrix(1,0,0,1,0,0)" style="-webkit-tap-highlight-color: rgba(0, 0, 0, 0); stroke-linejoin: round; stroke-linecap: round; opacity: 0.08;"></path><path fill="#080504" stroke="#080504" d="M70,13.770800000000008C39.49740000000001,13.770800000000008,14.770800000000008,38.49740000000001,14.770800000000008,69C14.770800000000008,99.5026,39.49740000000001,124.22919999999999,70,124.22919999999999C100.5026,124.22919999999999,125.22919999999999,99.5026,125.22919999999999,69C125.22919999999999,38.49740000000001,100.5026,13.770800000000008,70,13.770800000000008C70,13.770800000000008,70,13.770800000000008,70,13.770800000000008M74.769,98.94399999999999C74.769,98.94399999999999,74.769,106.7226,74.769,106.7226C74.769,106.7226,67.3286,106.7226,67.3286,106.7226C67.3286,106.7226,67.3286,99.03139999999999,67.3286,99.03139999999999C55.119200000000006,97.3594,49.7688,87.32740000000001,49.7688,87.32740000000001C49.7688,87.32740000000001,57.3764,80.97,57.3764,80.97C57.3764,80.97,62.225199999999994,89.41739999999999,71.00319999999999,89.41739999999999C75.852,89.41739999999999,79.53039999999999,86.822,79.53039999999999,82.3912C79.53039999999999,72.021,51.60419999999999,73.27879999999999,51.60419999999999,54.047C51.60419999999999,45.687000000000005,58.20859999999999,39.664,67.32479999999998,38.2428C67.32479999999998,38.2428,67.32479999999998,30.46420000000001,67.32479999999998,30.46420000000001C67.32479999999998,30.46420000000001,74.7652,30.46420000000001,74.7652,30.46420000000001C74.7652,30.46420000000001,74.7652,38.239000000000004,74.7652,38.239000000000004C81.1188,39.07500000000001,88.6428,42.419000000000004,88.6428,49.61240000000001C88.6428,49.61240000000001,88.6428,55.13000000000001,88.6428,55.13000000000001C88.6428,55.13000000000001,78.77799999999999,55.13000000000001,78.77799999999999,55.13000000000001C78.77799999999999,55.13000000000001,78.77799999999999,52.454800000000006,78.77799999999999,52.454800000000006C78.77799999999999,49.696,75.26299999999998,47.85680000000001,71.3338,47.85680000000001C66.31779999999999,47.85680000000001,62.63939999999999,50.36480000000001,62.63939999999999,53.876000000000005C62.63939999999999,64.4932,90.56559999999999,61.90160000000001,90.56559999999999,82.053C90.5694,90.3332,84.38300000000001,97.52280000000002,74.769,98.94399999999999C74.769,98.94399999999999,74.769,98.94399999999999,74.769,98.94399999999999" stroke-linejoin="round" stroke-linecap="round" stroke-width="4" opacity="0.08" transform="matrix(1,0,0,1,0,0)" style="-webkit-tap-highlight-color: rgba(0, 0, 0, 0); stroke-linejoin: round; stroke-linecap: round; opacity: 0.08;"></path><path fill="#080504" stroke="#080504" d="M70,13.770800000000008C39.49740000000001,13.770800000000008,14.770800000000008,38.49740000000001,14.770800000000008,69C14.770800000000008,99.5026,39.49740000000001,124.22919999999999,70,124.22919999999999C100.5026,124.22919999999999,125.22919999999999,99.5026,125.22919999999999,69C125.22919999999999,38.49740000000001,100.5026,13.770800000000008,70,13.770800000000008C70,13.770800000000008,70,13.770800000000008,70,13.770800000000008M74.769,98.94399999999999C74.769,98.94399999999999,74.769,106.7226,74.769,106.7226C74.769,106.7226,67.3286,106.7226,67.3286,106.7226C67.3286,106.7226,67.3286,99.03139999999999,67.3286,99.03139999999999C55.119200000000006,97.3594,49.7688,87.32740000000001,49.7688,87.32740000000001C49.7688,87.32740000000001,57.3764,80.97,57.3764,80.97C57.3764,80.97,62.225199999999994,89.41739999999999,71.00319999999999,89.41739999999999C75.852,89.41739999999999,79.53039999999999,86.822,79.53039999999999,82.3912C79.53039999999999,72.021,51.60419999999999,73.27879999999999,51.60419999999999,54.047C51.60419999999999,45.687000000000005,58.20859999999999,39.664,67.32479999999998,38.2428C67.32479999999998,38.2428,67.32479999999998,30.46420000000001,67.32479999999998,30.46420000000001C67.32479999999998,30.46420000000001,74.7652,30.46420000000001,74.7652,30.46420000000001C74.7652,30.46420000000001,74.7652,38.239000000000004,74.7652,38.239000000000004C81.1188,39.07500000000001,88.6428,42.419000000000004,88.6428,49.61240000000001C88.6428,49.61240000000001,88.6428,55.13000000000001,88.6428,55.13000000000001C88.6428,55.13000000000001,78.77799999999999,55.13000000000001,78.77799999999999,55.13000000000001C78.77799999999999,55.13000000000001,78.77799999999999,52.454800000000006,78.77799999999999,52.454800000000006C78.77799999999999,49.696,75.26299999999998,47.85680000000001,71.3338,47.85680000000001C66.31779999999999,47.85680000000001,62.63939999999999,50.36480000000001,62.63939999999999,53.876000000000005C62.63939999999999,64.4932,90.56559999999999,61.90160000000001,90.56559999999999,82.053C90.5694,90.3332,84.38300000000001,97.52280000000002,74.769,98.94399999999999C74.769,98.94399999999999,74.769,98.94399999999999,74.769,98.94399999999999" stroke-linejoin="round" stroke-linecap="round" stroke-width="6" opacity="0.08" transform="matrix(1,0,0,1,0,0)" style="-webkit-tap-highlight-color: rgba(0, 0, 0, 0); stroke-linejoin: round; stroke-linecap: round; opacity: 0.08;"></path><path fill="#080504" stroke="#080504" d="M70,13.770800000000008C39.49740000000001,13.770800000000008,14.770800000000008,38.49740000000001,14.770800000000008,69C14.770800000000008,99.5026,39.49740000000001,124.22919999999999,70,124.22919999999999C100.5026,124.22919999999999,125.22919999999999,99.5026,125.22919999999999,69C125.22919999999999,38.49740000000001,100.5026,13.770800000000008,70,13.770800000000008C70,13.770800000000008,70,13.770800000000008,70,13.770800000000008M74.769,98.94399999999999C74.769,98.94399999999999,74.769,106.7226,74.769,106.7226C74.769,106.7226,67.3286,106.7226,67.3286,106.7226C67.3286,106.7226,67.3286,99.03139999999999,67.3286,99.03139999999999C55.119200000000006,97.3594,49.7688,87.32740000000001,49.7688,87.32740000000001C49.7688,87.32740000000001,57.3764,80.97,57.3764,80.97C57.3764,80.97,62.225199999999994,89.41739999999999,71.00319999999999,89.41739999999999C75.852,89.41739999999999,79.53039999999999,86.822,79.53039999999999,82.3912C79.53039999999999,72.021,51.60419999999999,73.27879999999999,51.60419999999999,54.047C51.60419999999999,45.687000000000005,58.20859999999999,39.664,67.32479999999998,38.2428C67.32479999999998,38.2428,67.32479999999998,30.46420000000001,67.32479999999998,30.46420000000001C67.32479999999998,30.46420000000001,74.7652,30.46420000000001,74.7652,30.46420000000001C74.7652,30.46420000000001,74.7652,38.239000000000004,74.7652,38.239000000000004C81.1188,39.07500000000001,88.6428,42.419000000000004,88.6428,49.61240000000001C88.6428,49.61240000000001,88.6428,55.13000000000001,88.6428,55.13000000000001C88.6428,55.13000000000001,78.77799999999999,55.13000000000001,78.77799999999999,55.13000000000001C78.77799999999999,55.13000000000001,78.77799999999999,52.454800000000006,78.77799999999999,52.454800000000006C78.77799999999999,49.696,75.26299999999998,47.85680000000001,71.3338,47.85680000000001C66.31779999999999,47.85680000000001,62.63939999999999,50.36480000000001,62.63939999999999,53.876000000000005C62.63939999999999,64.4932,90.56559999999999,61.90160000000001,90.56559999999999,82.053C90.5694,90.3332,84.38300000000001,97.52280000000002,74.769,98.94399999999999C74.769,98.94399999999999,74.769,98.94399999999999,74.769,98.94399999999999" stroke-linejoin="round" stroke-linecap="round" stroke-width="8" opacity="0.08" transform="matrix(1,0,0,1,0,0)" style="-webkit-tap-highlight-color: rgba(0, 0, 0, 0); stroke-linejoin: round; stroke-linecap: round; opacity: 0.08;"></path><path fill="#080504" stroke="#080504" d="M70,13.770800000000008C39.49740000000001,13.770800000000008,14.770800000000008,38.49740000000001,14.770800000000008,69C14.770800000000008,99.5026,39.49740000000001,124.22919999999999,70,124.22919999999999C100.5026,124.22919999999999,125.22919999999999,99.5026,125.22919999999999,69C125.22919999999999,38.49740000000001,100.5026,13.770800000000008,70,13.770800000000008C70,13.770800000000008,70,13.770800000000008,70,13.770800000000008M74.769,98.94399999999999C74.769,98.94399999999999,74.769,106.7226,74.769,106.7226C74.769,106.7226,67.3286,106.7226,67.3286,106.7226C67.3286,106.7226,67.3286,99.03139999999999,67.3286,99.03139999999999C55.119200000000006,97.3594,49.7688,87.32740000000001,49.7688,87.32740000000001C49.7688,87.32740000000001,57.3764,80.97,57.3764,80.97C57.3764,80.97,62.225199999999994,89.41739999999999,71.00319999999999,89.41739999999999C75.852,89.41739999999999,79.53039999999999,86.822,79.53039999999999,82.3912C79.53039999999999,72.021,51.60419999999999,73.27879999999999,51.60419999999999,54.047C51.60419999999999,45.687000000000005,58.20859999999999,39.664,67.32479999999998,38.2428C67.32479999999998,38.2428,67.32479999999998,30.46420000000001,67.32479999999998,30.46420000000001C67.32479999999998,30.46420000000001,74.7652,30.46420000000001,74.7652,30.46420000000001C74.7652,30.46420000000001,74.7652,38.239000000000004,74.7652,38.239000000000004C81.1188,39.07500000000001,88.6428,42.419000000000004,88.6428,49.61240000000001C88.6428,49.61240000000001,88.6428,55.13000000000001,88.6428,55.13000000000001C88.6428,55.13000000000001,78.77799999999999,55.13000000000001,78.77799999999999,55.13000000000001C78.77799999999999,55.13000000000001,78.77799999999999,52.454800000000006,78.77799999999999,52.454800000000006C78.77799999999999,49.696,75.26299999999998,47.85680000000001,71.3338,47.85680000000001C66.31779999999999,47.85680000000001,62.63939999999999,50.36480000000001,62.63939999999999,53.876000000000005C62.63939999999999,64.4932,90.56559999999999,61.90160000000001,90.56559999999999,82.053C90.5694,90.3332,84.38300000000001,97.52280000000002,74.769,98.94399999999999C74.769,98.94399999999999,74.769,98.94399999999999,74.769,98.94399999999999" stroke-linejoin="round" stroke-linecap="round" stroke-width="10" opacity="0.08" transform="matrix(1,0,0,1,0,0)" style="-webkit-tap-highlight-color: rgba(0, 0, 0, 0); stroke-linejoin: round; stroke-linecap: round; opacity: 0.08;"></path><path fill="#080504" stroke="#080504" d="M70,13.770800000000008C39.49740000000001,13.770800000000008,14.770800000000008,38.49740000000001,14.770800000000008,69C14.770800000000008,99.5026,39.49740000000001,124.22919999999999,70,124.22919999999999C100.5026,124.22919999999999,125.22919999999999,99.5026,125.22919999999999,69C125.22919999999999,38.49740000000001,100.5026,13.770800000000008,70,13.770800000000008C70,13.770800000000008,70,13.770800000000008,70,13.770800000000008M74.769,98.94399999999999C74.769,98.94399999999999,74.769,106.7226,74.769,106.7226C74.769,106.7226,67.3286,106.7226,67.3286,106.7226C67.3286,106.7226,67.3286,99.03139999999999,67.3286,99.03139999999999C55.119200000000006,97.3594,49.7688,87.32740000000001,49.7688,87.32740000000001C49.7688,87.32740000000001,57.3764,80.97,57.3764,80.97C57.3764,80.97,62.225199999999994,89.41739999999999,71.00319999999999,89.41739999999999C75.852,89.41739999999999,79.53039999999999,86.822,79.53039999999999,82.3912C79.53039999999999,72.021,51.60419999999999,73.27879999999999,51.60419999999999,54.047C51.60419999999999,45.687000000000005,58.20859999999999,39.664,67.32479999999998,38.2428C67.32479999999998,38.2428,67.32479999999998,30.46420000000001,67.32479999999998,30.46420000000001C67.32479999999998,30.46420000000001,74.7652,30.46420000000001,74.7652,30.46420000000001C74.7652,30.46420000000001,74.7652,38.239000000000004,74.7652,38.239000000000004C81.1188,39.07500000000001,88.6428,42.419000000000004,88.6428,49.61240000000001C88.6428,49.61240000000001,88.6428,55.13000000000001,88.6428,55.13000000000001C88.6428,55.13000000000001,78.77799999999999,55.13000000000001,78.77799999999999,55.13000000000001C78.77799999999999,55.13000000000001,78.77799999999999,52.454800000000006,78.77799999999999,52.454800000000006C78.77799999999999,49.696,75.26299999999998,47.85680000000001,71.3338,47.85680000000001C66.31779999999999,47.85680000000001,62.63939999999999,50.36480000000001,62.63939999999999,53.876000000000005C62.63939999999999,64.4932,90.56559999999999,61.90160000000001,90.56559999999999,82.053C90.5694,90.3332,84.38300000000001,97.52280000000002,74.769,98.94399999999999C74.769,98.94399999999999,74.769,98.94399999999999,74.769,98.94399999999999" stroke-linejoin="round" stroke-linecap="round" stroke-width="12" opacity="0.08" transform="matrix(1,0,0,1,0,0)" style="-webkit-tap-highlight-color: rgba(0, 0, 0, 0); stroke-linejoin: round; stroke-linecap: round; opacity: 0.08;"></path><path fill="url(#980490-_FA0808-_D9D9D9)" stroke="none" d="M16,1.466C7.973,1.466,1.466,7.973,1.466,16C1.466,24.027,7.973,30.534,16,30.534C24.027,30.534,30.534,24.027,30.534,15.999999999999998C30.534,7.973,24.027,1.466,16,1.466ZM17.255,23.88V25.927H15.296999999999999V23.903C12.084,23.462999999999997,10.675999999999998,20.823,10.675999999999998,20.823L12.677999999999997,19.15C12.677999999999997,19.15,13.953999999999997,21.372999999999998,16.263999999999996,21.372999999999998C17.539999999999996,21.372999999999998,18.507999999999996,20.689999999999998,18.507999999999996,19.523999999999997C18.507999999999996,16.794999999999998,11.158999999999995,17.125999999999998,11.158999999999995,12.064999999999998C11.158999999999995,9.864999999999998,12.896999999999995,8.279999999999998,15.295999999999996,7.905999999999998V5.859H17.253999999999994V7.904999999999999C18.925999999999995,8.125,20.905999999999995,9.004999999999999,20.905999999999995,10.898V12.35H18.309999999999995V11.645999999999999C18.309999999999995,10.919999999999998,17.384999999999994,10.436,16.350999999999996,10.436C15.030999999999995,10.436,14.062999999999995,11.096,14.062999999999995,12.02C14.062999999999995,14.814,21.411999999999995,14.132,21.411999999999995,19.435C21.413,21.614,19.785,23.506,17.255,23.88Z" opacity="1" fill-opacity="1" transform="matrix(3.8,0,0,3.8,9.2,8.2)" stroke-width="0.2631578947368421" style="-webkit-tap-highlight-color: rgba(0, 0, 0, 0); opacity: 1; fill-opacity: 1;"></path></svg>