<svg height="138" version="1.1" width="138" xmlns="http://www.w3.org/2000/svg" viewBox="0 0 138 138" style="overflow: hidden; position: relative;"><desc style="-webkit-tap-highlight-color: rgba(0, 0, 0, 0);">Created with Raphaël 2.1.0</desc><defs style="-webkit-tap-highlight-color: rgba(0, 0, 0, 0);"><linearGradient id="460990-_D6F0B4-_87B112" x1="0" y1="1" x2="6.123031769111886e-17" y2="0" gradientTransform="matrix(1,0,0,1,0,0)" style="-webkit-tap-highlight-color: rgba(0, 0, 0, 0);"><stop offset="0%" stop-color="#d6f0b4" style="-webkit-tap-highlight-color: rgba(0, 0, 0, 0);"></stop><stop offset="100%" stop-color="#87b112" style="-webkit-tap-highlight-color: rgba(0, 0, 0, 0);"></stop></linearGradient></defs><path fill="#8c4d43" stroke="#8c4d43" d="M101.24406372318697,15.800000000000002C101.24406372318697,46.2,32.84406372318696,31,32.84406372318696,91.8C32.84406372318696,114.6,40.444063723186964,122.2,40.444063723186964,122.2C40.444063723186964,122.2,48.044063723186966,122.2,48.044063723186966,122.2C48.044063723186966,122.2,36.64406372318697,114.6,36.64406372318697,91.8C36.64406372318697,76.6,70.84406372318696,61.4,70.84406372318696,61.4C70.84406372318696,61.4,40.51626372318697,77.8464,40.51626372318697,93.4568C88.90926372318697,101.0378,115.69546372318698,44.7028,101.24406372318697,15.800000000000002C101.24406372318697,15.800000000000002,101.24406372318697,15.800000000000002,101.24406372318697,15.800000000000002" stroke-linejoin="round" stroke-linecap="round" stroke-width="2" opacity="0.111" transform="matrix(1,0,0,1,0,0)" style="-webkit-tap-highlight-color: rgba(0, 0, 0, 0); stroke-linejoin: round; stroke-linecap: round; opacity: 0.111;"></path><path fill="#8c4d43" stroke="#8c4d43" d="M101.24406372318697,15.800000000000002C101.24406372318697,46.2,32.84406372318696,31,32.84406372318696,91.8C32.84406372318696,114.6,40.444063723186964,122.2,40.444063723186964,122.2C40.444063723186964,122.2,48.044063723186966,122.2,48.044063723186966,122.2C48.044063723186966,122.2,36.64406372318697,114.6,36.64406372318697,91.8C36.64406372318697,76.6,70.84406372318696,61.4,70.84406372318696,61.4C70.84406372318696,61.4,40.51626372318697,77.8464,40.51626372318697,93.4568C88.90926372318697,101.0378,115.69546372318698,44.7028,101.24406372318697,15.800000000000002C101.24406372318697,15.800000000000002,101.24406372318697,15.800000000000002,101.24406372318697,15.800000000000002" stroke-linejoin="round" stroke-linecap="round" stroke-width="4" opacity="0.111" transform="matrix(1,0,0,1,0,0)" style="-webkit-tap-highlight-color: rgba(0, 0, 0, 0); stroke-linejoin: round; stroke-linecap: round; opacity: 0.111;"></path><path fill="#8c4d43" stroke="#8c4d43" d="M101.24406372318697,15.800000000000002C101.24406372318697,46.2,32.84406372318696,31,32.84406372318696,91.8C32.84406372318696,114.6,40.444063723186964,122.2,40.444063723186964,122.2C40.444063723186964,122.2,48.044063723186966,122.2,48.044063723186966,122.2C48.044063723186966,122.2,36.64406372318697,114.6,36.64406372318697,91.8C36.64406372318697,76.6,70.84406372318696,61.4,70.84406372318696,61.4C70.84406372318696,61.4,40.51626372318697,77.8464,40.51626372318697,93.4568C88.90926372318697,101.0378,115.69546372318698,44.7028,101.24406372318697,15.800000000000002C101.24406372318697,15.800000000000002,101.24406372318697,15.800000000000002,101.24406372318697,15.800000000000002" stroke-linejoin="round" stroke-linecap="round" stroke-width="6" opacity="0.111" transform="matrix(1,0,0,1,0,0)" style="-webkit-tap-highlight-color: rgba(0, 0, 0, 0); stroke-linejoin: round; stroke-linecap: round; opacity: 0.111;"></path><path fill="#8c4d43" stroke="#8c4d43" d="M101.24406372318697,15.800000000000002C101.24406372318697,46.2,32.84406372318696,31,32.84406372318696,91.8C32.84406372318696,114.6,40.444063723186964,122.2,40.444063723186964,122.2C40.444063723186964,122.2,48.044063723186966,122.2,48.044063723186966,122.2C48.044063723186966,122.2,36.64406372318697,114.6,36.64406372318697,91.8C36.64406372318697,76.6,70.84406372318696,61.4,70.84406372318696,61.4C70.84406372318696,61.4,40.51626372318697,77.8464,40.51626372318697,93.4568C88.90926372318697,101.0378,115.69546372318698,44.7028,101.24406372318697,15.800000000000002C101.24406372318697,15.800000000000002,101.24406372318697,15.800000000000002,101.24406372318697,15.800000000000002" stroke-linejoin="round" stroke-linecap="round" stroke-width="8" opacity="0.111" transform="matrix(1,0,0,1,0,0)" style="-webkit-tap-highlight-color: rgba(0, 0, 0, 0); stroke-linejoin: round; stroke-linecap: round; opacity: 0.111;"></path><path fill="#8c4d43" stroke="#8c4d43" d="M101.24406372318697,15.800000000000002C101.24406372318697,46.2,32.84406372318696,31,32.84406372318696,91.8C32.84406372318696,114.6,40.444063723186964,122.2,40.444063723186964,122.2C40.444063723186964,122.2,48.044063723186966,122.2,48.044063723186966,122.2C48.044063723186966,122.2,36.64406372318697,114.6,36.64406372318697,91.8C36.64406372318697,76.6,70.84406372318696,61.4,70.84406372318696,61.4C70.84406372318696,61.4,40.51626372318697,77.8464,40.51626372318697,93.4568C88.90926372318697,101.0378,115.69546372318698,44.7028,101.24406372318697,15.800000000000002C101.24406372318697,15.800000000000002,101.24406372318697,15.800000000000002,101.24406372318697,15.800000000000002" stroke-linejoin="round" stroke-linecap="round" stroke-width="10" opacity="0.111" transform="matrix(1,0,0,1,0,0)" style="-webkit-tap-highlight-color: rgba(0, 0, 0, 0); stroke-linejoin: round; stroke-linecap: round; opacity: 0.111;"></path><path fill="url(#460990-_D6F0B4-_87B112)" stroke="none" d="M24.485,2C24.485,10,6.484999999999999,6,6.484999999999999,22C6.484999999999999,28,8.485,30,8.485,30H10.485C10.485,30,7.484999999999999,28,7.484999999999999,22C7.484999999999999,18,16.485,14,16.485,14S8.504,18.328,8.504,22.436C21.239,24.431,28.288,9.606,24.485,2Z" opacity="1" fill-opacity="1" transform="matrix(3.8,0,0,3.8,8.2011,8.2)" stroke-width="0.2631578947368421" style="-webkit-tap-highlight-color: rgba(0, 0, 0, 0); opacity: 1; fill-opacity: 1;"></path></svg>