<?xml version="1.0" encoding="utf-8"?>
<!-- Generator: Adobe Illustrator 17.0.0, SVG Export Plug-In . SVG Version: 6.00 Build 0)  -->
<!DOCTYPE svg PUBLIC "-//W3C//DTD SVG 1.1//EN" "http://www.w3.org/Graphics/SVG/1.1/DTD/svg11.dtd">
<svg version="1.1" id="Layer_1" xmlns="http://www.w3.org/2000/svg" xmlns:xlink="http://www.w3.org/1999/xlink" x="0px" y="0px"
	 width="540px" height="100px" viewBox="0 0 540 100" enable-background="new 0 0 540 100" xml:space="preserve">
<g>
	<linearGradient id="SVGID_1_" gradientUnits="userSpaceOnUse" x1="270" y1="-1.158332e-08" x2="270" y2="100">
		<stop  offset="0" style="stop-color:#5055A5"/>
		<stop  offset="1" style="stop-color:#8D6CB0"/>
	</linearGradient>
	<path fill="url(#SVGID_1_)" d="M540,88c0,6.627-5.373,12-12,12H12c-6.627,0-12-5.373-12-12V12C0,5.373,5.373,0,12,0h516
		c6.627,0,12,5.373,12,12V88z"/>
	<linearGradient id="svg_2_1_" gradientUnits="userSpaceOnUse" x1="27.8264" y1="49.7519" x2="84.478" y2="49.7519">
		<stop  offset="0" style="stop-color:#FFFFFF"/>
		<stop  offset="1" style="stop-color:#000000"/>
	</linearGradient>
	<path id="svg_2" fill="url(#svg_2_1_)" d="M56.152,67.707c8.561,0,15.561-7.182,15.561-15.96V19.029c0-8.778-7-15.96-15.561-15.96
		s-15.561,7.182-15.561,15.96v32.718C40.591,60.525,47.591,67.707,56.152,67.707z M74.908,35.388v16.359
		c0,10.559-8.414,19.152-18.756,19.152s-18.753-8.59-18.753-19.152V35.388h-9.573v16.359c0,14.182,10.195,25.957,23.531,28.284
		v6.828H40.594v9.576h31.119v-9.576H60.937v-6.828c13.346-2.321,23.541-14.102,23.541-28.284V35.388H74.908z"/>
</g>
</svg>
