<?xml version="1.0" encoding="utf-8"?>
<!-- Generator: Adobe Illustrator 17.0.0, SVG Export Plug-In . SVG Version: 6.00 Build 0)  -->
<!DOCTYPE svg PUBLIC "-//W3C//DTD SVG 1.1//EN" "http://www.w3.org/Graphics/SVG/1.1/DTD/svg11.dtd">
<svg version="1.1" id="Layer_1" xmlns="http://www.w3.org/2000/svg" xmlns:xlink="http://www.w3.org/1999/xlink" x="0px" y="0px"
	 width="540px" height="100px" viewBox="0 0 540 100" enable-background="new 0 0 540 100" xml:space="preserve">
<g>
	<path fill="#67C188" d="M540,88c0,6.627-5.373,12-12,12H12c-6.627,0-12-5.373-12-12V12C0,5.373,5.373,0,12,0h516
		c6.627,0,12,5.373,12,12V88z"/>
	<linearGradient id="svg_2_1_" gradientUnits="userSpaceOnUse" x1="21.693" y1="50" x2="92.4124" y2="50">
		<stop  offset="0.13" style="stop-color:#FFFFFF"/>
		<stop  offset="1" style="stop-color:#000000"/>
	</linearGradient>
	<path id="svg_2" fill="url(#svg_2_1_)" d="M38.543,59.665c-1.014-2.349-1.587-4.944-1.587-7.674V35.633H27.36v16.359
		c0,5.404,1.491,10.454,4.07,14.769L38.543,59.665z M71.354,26.938v-7.664c0-8.778-7.017-15.96-15.599-15.96
		s-15.599,7.182-15.599,15.96v32.718c0,1.813,0.362,3.527,0.912,5.155L71.354,26.938z M74.557,41.797v10.198
		c0,10.559-8.435,19.152-18.802,19.152c-3.065,0-5.955-0.766-8.515-2.097l-6.972,6.955c3.184,2.104,6.793,3.601,10.681,4.277v6.828
		h-10.79v9.576h31.195V87.11H60.552v-6.828C73.93,77.962,84.15,66.18,84.15,51.998V35.633h-3.417L74.557,41.797z M71.354,51.992
		v-7.003l-21.72,21.667c1.882,0.83,3.949,1.293,6.121,1.293C64.337,67.952,71.354,60.77,71.354,51.992z M87.888,14.955
		L21.693,80.988l4.528,4.52l66.192-66.036L87.888,14.955z"/>
</g>
</svg>
