<svg height="138" version="1.1" width="138" xmlns="http://www.w3.org/2000/svg" viewBox="0 0 138 138" style="overflow: hidden; position: relative;"><desc style="-webkit-tap-highlight-color: rgba(0, 0, 0, 0);">Created with Raphaël 2.1.0</desc><defs style="-webkit-tap-highlight-color: rgba(0, 0, 0, 0);"><linearGradient id="456790-_D6F0B4-_87B112" x1="0" y1="1" x2="6.123031769111886e-17" y2="0" gradientTransform="matrix(1,0,0,1,0,0)" style="-webkit-tap-highlight-color: rgba(0, 0, 0, 0);"><stop offset="0%" stop-color="#d6f0b4" style="-webkit-tap-highlight-color: rgba(0, 0, 0, 0);"></stop><stop offset="100%" stop-color="#87b112" style="-webkit-tap-highlight-color: rgba(0, 0, 0, 0);"></stop></linearGradient></defs><path fill="#8c4d43" stroke="#8c4d43" d="M68.9958,95.56299999999999C68.9958,95.56299999999999,35.236599999999996,120.09199999999998,35.236599999999996,120.09199999999998C35.236599999999996,120.09199999999998,48.1414,80.42759999999998,48.1414,80.42759999999998C48.1414,80.42759999999998,14.386000000000003,55.88719999999998,14.386000000000003,55.88719999999998C14.386000000000003,55.88719999999998,56.1062,55.89479999999998,56.1062,55.89479999999998C56.1062,55.89479999999998,69.0034,16.237999999999996,69.0034,16.237999999999996C69.0034,16.237999999999996,81.88919999999999,55.88719999999999,81.88919999999999,55.88719999999999C81.88919999999999,55.88719999999999,123.61699999999999,55.88719999999999,123.61699999999999,55.88719999999999C123.61699999999999,55.88719999999999,89.8502,80.42379999999999,89.8502,80.42379999999999C89.8502,80.42379999999999,102.755,120.09199999999998,102.755,120.09199999999998C102.755,120.09199999999998,68.9958,95.56299999999999,68.9958,95.56299999999999C68.9958,95.56299999999999,68.9958,95.56299999999999,68.9958,95.56299999999999C68.9958,95.56299999999999,68.9958,95.56299999999999,68.9958,95.56299999999999M95.51599999999999,110.1322C95.51599999999999,110.1322,85.3928,78.95319999999998,85.3928,78.95319999999998C85.3928,78.95319999999998,111.91299999999998,59.71759999999998,111.91299999999998,59.71759999999998C111.91299999999998,59.71759999999998,79.13039999999998,59.71759999999998,79.13039999999998,59.71759999999998C79.13039999999998,59.71759999999998,68.9958,28.508199999999995,68.9958,28.508199999999995C68.9958,28.508199999999995,58.864999999999995,59.69099999999999,58.864999999999995,59.69099999999999C58.864999999999995,59.69099999999999,26.086199999999998,59.69099999999999,26.086199999999998,59.69099999999999C26.086199999999998,59.69099999999999,52.6064,78.957,52.6064,78.957C52.6064,78.957,42.4756,110.12839999999998,42.4756,110.12839999999998C42.4756,110.12839999999998,68.9958,90.8928,68.9958,90.8928C68.9958,90.8928,95.51599999999999,110.1322,95.51599999999999,110.1322C95.51599999999999,110.1322,95.51599999999999,110.1322,95.51599999999999,110.1322C95.51599999999999,110.1322,95.51599999999999,110.1322,95.51599999999999,110.1322" stroke-linejoin="round" stroke-linecap="round" stroke-width="2" opacity="0.111" transform="matrix(1,0,0,1,0,0)" style="-webkit-tap-highlight-color: rgba(0, 0, 0, 0); stroke-linejoin: round; stroke-linecap: round; opacity: 0.111;"></path><path fill="#8c4d43" stroke="#8c4d43" d="M68.9958,95.56299999999999C68.9958,95.56299999999999,35.236599999999996,120.09199999999998,35.236599999999996,120.09199999999998C35.236599999999996,120.09199999999998,48.1414,80.42759999999998,48.1414,80.42759999999998C48.1414,80.42759999999998,14.386000000000003,55.88719999999998,14.386000000000003,55.88719999999998C14.386000000000003,55.88719999999998,56.1062,55.89479999999998,56.1062,55.89479999999998C56.1062,55.89479999999998,69.0034,16.237999999999996,69.0034,16.237999999999996C69.0034,16.237999999999996,81.88919999999999,55.88719999999999,81.88919999999999,55.88719999999999C81.88919999999999,55.88719999999999,123.61699999999999,55.88719999999999,123.61699999999999,55.88719999999999C123.61699999999999,55.88719999999999,89.8502,80.42379999999999,89.8502,80.42379999999999C89.8502,80.42379999999999,102.755,120.09199999999998,102.755,120.09199999999998C102.755,120.09199999999998,68.9958,95.56299999999999,68.9958,95.56299999999999C68.9958,95.56299999999999,68.9958,95.56299999999999,68.9958,95.56299999999999C68.9958,95.56299999999999,68.9958,95.56299999999999,68.9958,95.56299999999999M95.51599999999999,110.1322C95.51599999999999,110.1322,85.3928,78.95319999999998,85.3928,78.95319999999998C85.3928,78.95319999999998,111.91299999999998,59.71759999999998,111.91299999999998,59.71759999999998C111.91299999999998,59.71759999999998,79.13039999999998,59.71759999999998,79.13039999999998,59.71759999999998C79.13039999999998,59.71759999999998,68.9958,28.508199999999995,68.9958,28.508199999999995C68.9958,28.508199999999995,58.864999999999995,59.69099999999999,58.864999999999995,59.69099999999999C58.864999999999995,59.69099999999999,26.086199999999998,59.69099999999999,26.086199999999998,59.69099999999999C26.086199999999998,59.69099999999999,52.6064,78.957,52.6064,78.957C52.6064,78.957,42.4756,110.12839999999998,42.4756,110.12839999999998C42.4756,110.12839999999998,68.9958,90.8928,68.9958,90.8928C68.9958,90.8928,95.51599999999999,110.1322,95.51599999999999,110.1322C95.51599999999999,110.1322,95.51599999999999,110.1322,95.51599999999999,110.1322C95.51599999999999,110.1322,95.51599999999999,110.1322,95.51599999999999,110.1322" stroke-linejoin="round" stroke-linecap="round" stroke-width="4" opacity="0.111" transform="matrix(1,0,0,1,0,0)" style="-webkit-tap-highlight-color: rgba(0, 0, 0, 0); stroke-linejoin: round; stroke-linecap: round; opacity: 0.111;"></path><path fill="#8c4d43" stroke="#8c4d43" d="M68.9958,95.56299999999999C68.9958,95.56299999999999,35.236599999999996,120.09199999999998,35.236599999999996,120.09199999999998C35.236599999999996,120.09199999999998,48.1414,80.42759999999998,48.1414,80.42759999999998C48.1414,80.42759999999998,14.386000000000003,55.88719999999998,14.386000000000003,55.88719999999998C14.386000000000003,55.88719999999998,56.1062,55.89479999999998,56.1062,55.89479999999998C56.1062,55.89479999999998,69.0034,16.237999999999996,69.0034,16.237999999999996C69.0034,16.237999999999996,81.88919999999999,55.88719999999999,81.88919999999999,55.88719999999999C81.88919999999999,55.88719999999999,123.61699999999999,55.88719999999999,123.61699999999999,55.88719999999999C123.61699999999999,55.88719999999999,89.8502,80.42379999999999,89.8502,80.42379999999999C89.8502,80.42379999999999,102.755,120.09199999999998,102.755,120.09199999999998C102.755,120.09199999999998,68.9958,95.56299999999999,68.9958,95.56299999999999C68.9958,95.56299999999999,68.9958,95.56299999999999,68.9958,95.56299999999999C68.9958,95.56299999999999,68.9958,95.56299999999999,68.9958,95.56299999999999M95.51599999999999,110.1322C95.51599999999999,110.1322,85.3928,78.95319999999998,85.3928,78.95319999999998C85.3928,78.95319999999998,111.91299999999998,59.71759999999998,111.91299999999998,59.71759999999998C111.91299999999998,59.71759999999998,79.13039999999998,59.71759999999998,79.13039999999998,59.71759999999998C79.13039999999998,59.71759999999998,68.9958,28.508199999999995,68.9958,28.508199999999995C68.9958,28.508199999999995,58.864999999999995,59.69099999999999,58.864999999999995,59.69099999999999C58.864999999999995,59.69099999999999,26.086199999999998,59.69099999999999,26.086199999999998,59.69099999999999C26.086199999999998,59.69099999999999,52.6064,78.957,52.6064,78.957C52.6064,78.957,42.4756,110.12839999999998,42.4756,110.12839999999998C42.4756,110.12839999999998,68.9958,90.8928,68.9958,90.8928C68.9958,90.8928,95.51599999999999,110.1322,95.51599999999999,110.1322C95.51599999999999,110.1322,95.51599999999999,110.1322,95.51599999999999,110.1322C95.51599999999999,110.1322,95.51599999999999,110.1322,95.51599999999999,110.1322" stroke-linejoin="round" stroke-linecap="round" stroke-width="6" opacity="0.111" transform="matrix(1,0,0,1,0,0)" style="-webkit-tap-highlight-color: rgba(0, 0, 0, 0); stroke-linejoin: round; stroke-linecap: round; opacity: 0.111;"></path><path fill="#8c4d43" stroke="#8c4d43" d="M68.9958,95.56299999999999C68.9958,95.56299999999999,35.236599999999996,120.09199999999998,35.236599999999996,120.09199999999998C35.236599999999996,120.09199999999998,48.1414,80.42759999999998,48.1414,80.42759999999998C48.1414,80.42759999999998,14.386000000000003,55.88719999999998,14.386000000000003,55.88719999999998C14.386000000000003,55.88719999999998,56.1062,55.89479999999998,56.1062,55.89479999999998C56.1062,55.89479999999998,69.0034,16.237999999999996,69.0034,16.237999999999996C69.0034,16.237999999999996,81.88919999999999,55.88719999999999,81.88919999999999,55.88719999999999C81.88919999999999,55.88719999999999,123.61699999999999,55.88719999999999,123.61699999999999,55.88719999999999C123.61699999999999,55.88719999999999,89.8502,80.42379999999999,89.8502,80.42379999999999C89.8502,80.42379999999999,102.755,120.09199999999998,102.755,120.09199999999998C102.755,120.09199999999998,68.9958,95.56299999999999,68.9958,95.56299999999999C68.9958,95.56299999999999,68.9958,95.56299999999999,68.9958,95.56299999999999C68.9958,95.56299999999999,68.9958,95.56299999999999,68.9958,95.56299999999999M95.51599999999999,110.1322C95.51599999999999,110.1322,85.3928,78.95319999999998,85.3928,78.95319999999998C85.3928,78.95319999999998,111.91299999999998,59.71759999999998,111.91299999999998,59.71759999999998C111.91299999999998,59.71759999999998,79.13039999999998,59.71759999999998,79.13039999999998,59.71759999999998C79.13039999999998,59.71759999999998,68.9958,28.508199999999995,68.9958,28.508199999999995C68.9958,28.508199999999995,58.864999999999995,59.69099999999999,58.864999999999995,59.69099999999999C58.864999999999995,59.69099999999999,26.086199999999998,59.69099999999999,26.086199999999998,59.69099999999999C26.086199999999998,59.69099999999999,52.6064,78.957,52.6064,78.957C52.6064,78.957,42.4756,110.12839999999998,42.4756,110.12839999999998C42.4756,110.12839999999998,68.9958,90.8928,68.9958,90.8928C68.9958,90.8928,95.51599999999999,110.1322,95.51599999999999,110.1322C95.51599999999999,110.1322,95.51599999999999,110.1322,95.51599999999999,110.1322C95.51599999999999,110.1322,95.51599999999999,110.1322,95.51599999999999,110.1322" stroke-linejoin="round" stroke-linecap="round" stroke-width="8" opacity="0.111" transform="matrix(1,0,0,1,0,0)" style="-webkit-tap-highlight-color: rgba(0, 0, 0, 0); stroke-linejoin: round; stroke-linecap: round; opacity: 0.111;"></path><path fill="#8c4d43" stroke="#8c4d43" d="M68.9958,95.56299999999999C68.9958,95.56299999999999,35.236599999999996,120.09199999999998,35.236599999999996,120.09199999999998C35.236599999999996,120.09199999999998,48.1414,80.42759999999998,48.1414,80.42759999999998C48.1414,80.42759999999998,14.386000000000003,55.88719999999998,14.386000000000003,55.88719999999998C14.386000000000003,55.88719999999998,56.1062,55.89479999999998,56.1062,55.89479999999998C56.1062,55.89479999999998,69.0034,16.237999999999996,69.0034,16.237999999999996C69.0034,16.237999999999996,81.88919999999999,55.88719999999999,81.88919999999999,55.88719999999999C81.88919999999999,55.88719999999999,123.61699999999999,55.88719999999999,123.61699999999999,55.88719999999999C123.61699999999999,55.88719999999999,89.8502,80.42379999999999,89.8502,80.42379999999999C89.8502,80.42379999999999,102.755,120.09199999999998,102.755,120.09199999999998C102.755,120.09199999999998,68.9958,95.56299999999999,68.9958,95.56299999999999C68.9958,95.56299999999999,68.9958,95.56299999999999,68.9958,95.56299999999999C68.9958,95.56299999999999,68.9958,95.56299999999999,68.9958,95.56299999999999M95.51599999999999,110.1322C95.51599999999999,110.1322,85.3928,78.95319999999998,85.3928,78.95319999999998C85.3928,78.95319999999998,111.91299999999998,59.71759999999998,111.91299999999998,59.71759999999998C111.91299999999998,59.71759999999998,79.13039999999998,59.71759999999998,79.13039999999998,59.71759999999998C79.13039999999998,59.71759999999998,68.9958,28.508199999999995,68.9958,28.508199999999995C68.9958,28.508199999999995,58.864999999999995,59.69099999999999,58.864999999999995,59.69099999999999C58.864999999999995,59.69099999999999,26.086199999999998,59.69099999999999,26.086199999999998,59.69099999999999C26.086199999999998,59.69099999999999,52.6064,78.957,52.6064,78.957C52.6064,78.957,42.4756,110.12839999999998,42.4756,110.12839999999998C42.4756,110.12839999999998,68.9958,90.8928,68.9958,90.8928C68.9958,90.8928,95.51599999999999,110.1322,95.51599999999999,110.1322C95.51599999999999,110.1322,95.51599999999999,110.1322,95.51599999999999,110.1322C95.51599999999999,110.1322,95.51599999999999,110.1322,95.51599999999999,110.1322" stroke-linejoin="round" stroke-linecap="round" stroke-width="10" opacity="0.111" transform="matrix(1,0,0,1,0,0)" style="-webkit-tap-highlight-color: rgba(0, 0, 0, 0); stroke-linejoin: round; stroke-linecap: round; opacity: 0.111;"></path><path fill="url(#456790-_D6F0B4-_87B112)" stroke="none" d="M16,22.375L7.116,28.83L10.512,18.391999999999996L1.6290000000000013,11.933999999999996L12.608,11.935999999999996L16.002,1.5L19.393,11.934H30.374000000000002L21.488000000000003,18.391L24.884000000000004,28.83L16,22.375L16,22.375ZM22.979,26.209L20.314999999999998,18.003999999999998L27.293999999999997,12.941999999999997H18.666999999999994L16,4.729L13.334,12.934999999999999H4.708L11.687000000000001,18.005L9.021,26.208L16,21.146L22.979,26.209L22.979,26.209Z" opacity="1" fill-opacity="1" transform="matrix(3.8,0,0,3.8,8.1958,10.538)" stroke-width="0.2631578947368421" style="-webkit-tap-highlight-color: rgba(0, 0, 0, 0); opacity: 1; fill-opacity: 1;"></path></svg>