<svg height="138" version="1.1" width="138" xmlns="http://www.w3.org/2000/svg" viewBox="0 0 138 138" style="overflow: hidden; position: relative;"><desc style="-webkit-tap-highlight-color: rgba(0, 0, 0, 0);">Created with Raphaël 2.1.0</desc><defs style="-webkit-tap-highlight-color: rgba(0, 0, 0, 0);"><linearGradient id="60390-_AD6C82-_BAE4B1" x1="0" y1="1" x2="6.123031769111886e-17" y2="0" gradientTransform="matrix(1,0,0,1,0,0)" style="-webkit-tap-highlight-color: rgba(0, 0, 0, 0);"><stop offset="0%" stop-color="#ad6c82" style="-webkit-tap-highlight-color: rgba(0, 0, 0, 0);"></stop><stop offset="100%" stop-color="#bae4b1" style="-webkit-tap-highlight-color: rgba(0, 0, 0, 0);"></stop></linearGradient><linearGradient id="60490-_ADB5A9-_24120E" x1="0" y1="1" x2="6.123031769111886e-17" y2="0" gradientTransform="matrix(1,0,0,1,0,0)" style="-webkit-tap-highlight-color: rgba(0, 0, 0, 0);"><stop offset="0%" stop-color="#adb5a9" style="-webkit-tap-highlight-color: rgba(0, 0, 0, 0);"></stop><stop offset="100%" stop-color="#24120e" style="-webkit-tap-highlight-color: rgba(0, 0, 0, 0);"></stop></linearGradient></defs><circle cx="69" cy="69" r="69" fill="url(#60390-_AD6C82-_BAE4B1)" stroke="none" opacity="1" fill-opacity="1" style="-webkit-tap-highlight-color: rgba(0, 0, 0, 0); opacity: 1; fill-opacity: 1;"></circle><path fill="#eef8ac" stroke="#eef8ac" d="M101,105.8C101,105.8,37,105.8,37,105.8C34.3472,105.8,32.199999999999996,103.6496,32.199999999999996,101C32.199999999999996,101,32.199999999999996,37,32.199999999999996,37C32.199999999999996,34.3472,34.3472,32.199999999999996,37,32.199999999999996C37,32.199999999999996,101,32.199999999999996,101,32.199999999999996C103.6496,32.199999999999996,105.8,34.3472,105.8,37C105.8,37,105.8,101,105.8,101C105.8,103.6496,103.6496,105.8,101,105.8C101,105.8,101,105.8,101,105.8M41.8,96.2C41.8,96.2,96.2,96.2,96.2,96.2C96.2,96.2,96.2,41.8,96.2,41.8C96.2,41.8,41.8,41.8,41.8,41.8C41.8,41.8,41.8,96.2,41.8,96.2C41.8,96.2,41.8,96.2,41.8,96.2" stroke-linejoin="round" stroke-linecap="round" stroke-width="2" opacity="0.091" transform="matrix(1,0,0,1,0,0)" style="-webkit-tap-highlight-color: rgba(0, 0, 0, 0); stroke-linejoin: round; stroke-linecap: round; opacity: 0.091;"></path><path fill="#eef8ac" stroke="#eef8ac" d="M101,105.8C101,105.8,37,105.8,37,105.8C34.3472,105.8,32.199999999999996,103.6496,32.199999999999996,101C32.199999999999996,101,32.199999999999996,37,32.199999999999996,37C32.199999999999996,34.3472,34.3472,32.199999999999996,37,32.199999999999996C37,32.199999999999996,101,32.199999999999996,101,32.199999999999996C103.6496,32.199999999999996,105.8,34.3472,105.8,37C105.8,37,105.8,101,105.8,101C105.8,103.6496,103.6496,105.8,101,105.8C101,105.8,101,105.8,101,105.8M41.8,96.2C41.8,96.2,96.2,96.2,96.2,96.2C96.2,96.2,96.2,41.8,96.2,41.8C96.2,41.8,41.8,41.8,41.8,41.8C41.8,41.8,41.8,96.2,41.8,96.2C41.8,96.2,41.8,96.2,41.8,96.2" stroke-linejoin="round" stroke-linecap="round" stroke-width="4" opacity="0.091" transform="matrix(1,0,0,1,0,0)" style="-webkit-tap-highlight-color: rgba(0, 0, 0, 0); stroke-linejoin: round; stroke-linecap: round; opacity: 0.091;"></path><path fill="#eef8ac" stroke="#eef8ac" d="M101,105.8C101,105.8,37,105.8,37,105.8C34.3472,105.8,32.199999999999996,103.6496,32.199999999999996,101C32.199999999999996,101,32.199999999999996,37,32.199999999999996,37C32.199999999999996,34.3472,34.3472,32.199999999999996,37,32.199999999999996C37,32.199999999999996,101,32.199999999999996,101,32.199999999999996C103.6496,32.199999999999996,105.8,34.3472,105.8,37C105.8,37,105.8,101,105.8,101C105.8,103.6496,103.6496,105.8,101,105.8C101,105.8,101,105.8,101,105.8M41.8,96.2C41.8,96.2,96.2,96.2,96.2,96.2C96.2,96.2,96.2,41.8,96.2,41.8C96.2,41.8,41.8,41.8,41.8,41.8C41.8,41.8,41.8,96.2,41.8,96.2C41.8,96.2,41.8,96.2,41.8,96.2" stroke-linejoin="round" stroke-linecap="round" stroke-width="6" opacity="0.091" transform="matrix(1,0,0,1,0,0)" style="-webkit-tap-highlight-color: rgba(0, 0, 0, 0); stroke-linejoin: round; stroke-linecap: round; opacity: 0.091;"></path><path fill="#eef8ac" stroke="#eef8ac" d="M101,105.8C101,105.8,37,105.8,37,105.8C34.3472,105.8,32.199999999999996,103.6496,32.199999999999996,101C32.199999999999996,101,32.199999999999996,37,32.199999999999996,37C32.199999999999996,34.3472,34.3472,32.199999999999996,37,32.199999999999996C37,32.199999999999996,101,32.199999999999996,101,32.199999999999996C103.6496,32.199999999999996,105.8,34.3472,105.8,37C105.8,37,105.8,101,105.8,101C105.8,103.6496,103.6496,105.8,101,105.8C101,105.8,101,105.8,101,105.8M41.8,96.2C41.8,96.2,96.2,96.2,96.2,96.2C96.2,96.2,96.2,41.8,96.2,41.8C96.2,41.8,41.8,41.8,41.8,41.8C41.8,41.8,41.8,96.2,41.8,96.2C41.8,96.2,41.8,96.2,41.8,96.2" stroke-linejoin="round" stroke-linecap="round" stroke-width="8" opacity="0.091" transform="matrix(1,0,0,1,0,0)" style="-webkit-tap-highlight-color: rgba(0, 0, 0, 0); stroke-linejoin: round; stroke-linecap: round; opacity: 0.091;"></path><path fill="#eef8ac" stroke="#eef8ac" d="M101,105.8C101,105.8,37,105.8,37,105.8C34.3472,105.8,32.199999999999996,103.6496,32.199999999999996,101C32.199999999999996,101,32.199999999999996,37,32.199999999999996,37C32.199999999999996,34.3472,34.3472,32.199999999999996,37,32.199999999999996C37,32.199999999999996,101,32.199999999999996,101,32.199999999999996C103.6496,32.199999999999996,105.8,34.3472,105.8,37C105.8,37,105.8,101,105.8,101C105.8,103.6496,103.6496,105.8,101,105.8C101,105.8,101,105.8,101,105.8M41.8,96.2C41.8,96.2,96.2,96.2,96.2,96.2C96.2,96.2,96.2,41.8,96.2,41.8C96.2,41.8,41.8,41.8,41.8,41.8C41.8,41.8,41.8,96.2,41.8,96.2C41.8,96.2,41.8,96.2,41.8,96.2" stroke-linejoin="round" stroke-linecap="round" stroke-width="10" opacity="0.091" transform="matrix(1,0,0,1,0,0)" style="-webkit-tap-highlight-color: rgba(0, 0, 0, 0); stroke-linejoin: round; stroke-linecap: round; opacity: 0.091;"></path><path fill="#eef8ac" stroke="#eef8ac" d="M101,105.8C101,105.8,37,105.8,37,105.8C34.3472,105.8,32.199999999999996,103.6496,32.199999999999996,101C32.199999999999996,101,32.199999999999996,37,32.199999999999996,37C32.199999999999996,34.3472,34.3472,32.199999999999996,37,32.199999999999996C37,32.199999999999996,101,32.199999999999996,101,32.199999999999996C103.6496,32.199999999999996,105.8,34.3472,105.8,37C105.8,37,105.8,101,105.8,101C105.8,103.6496,103.6496,105.8,101,105.8C101,105.8,101,105.8,101,105.8M41.8,96.2C41.8,96.2,96.2,96.2,96.2,96.2C96.2,96.2,96.2,41.8,96.2,41.8C96.2,41.8,41.8,41.8,41.8,41.8C41.8,41.8,41.8,96.2,41.8,96.2C41.8,96.2,41.8,96.2,41.8,96.2" stroke-linejoin="round" stroke-linecap="round" stroke-width="12" opacity="0.091" transform="matrix(1,0,0,1,0,0)" style="-webkit-tap-highlight-color: rgba(0, 0, 0, 0); stroke-linejoin: round; stroke-linecap: round; opacity: 0.091;"></path><path fill="url(#60490-_ADB5A9-_24120E)" stroke="none" d="M26,27.5H6C5.171,27.5,4.5,26.828,4.5,26V6C4.5,5.171,5.171,4.5,6,4.5H26C26.828,4.5,27.5,5.171,27.5,6V26C27.5,26.828,26.828,27.5,26,27.5ZM7.5,24.5H24.5V7.5H7.5V24.5Z" opacity="1" fill-opacity="1" transform="matrix(3.2,0,0,3.2,17.8,17.8)" stroke-width="0.3125" style="-webkit-tap-highlight-color: rgba(0, 0, 0, 0); opacity: 1; fill-opacity: 1;"></path></svg>