<?xml version="1.0" encoding="UTF-8" standalone="no"?>
<svg width="54px" height="40px" viewBox="0 0 54 40" version="1.1" xmlns="http://www.w3.org/2000/svg" xmlns:xlink="http://www.w3.org/1999/xlink" xmlns:sketch="http://www.bohemiancoding.com/sketch/ns">
    <title>checkmark</title>
    <description>Created with Sketch (http://www.bohemiancoding.com/sketch)</description>
    <defs></defs>
    <g id="Page-1" stroke="none" stroke-width="1" fill="none" fill-rule="evenodd" sketch:type="MSPage">
        <path d="M0.627564511,24.1276005 C-0.210935489,23.2972302 -0.208685489,21.9372302 0.631314511,21.1083413 L6.02981451,15.7757487 C6.86981451,14.9453783 8.24531451,14.9453783 9.08606451,15.7742672 L17.8535645,24.4142672 C18.6943145,25.2431561 20.0683145,25.2416746 20.9075645,24.4113042 L44.9345645,0.625378314 C45.7738145,-0.204992056 47.1493145,-0.209436501 47.9923145,0.617970907 L53.3638145,5.88537831 C54.2068145,6.71278572 54.2105645,8.06834128 53.3713145,8.89945239 L24.2345645,37.7446376 C23.3953145,38.5750079 21.7370645,39.2550079 20.5490645,39.2550079 L18.0328145,39.2550079 C16.8448145,39.2550079 15.1873145,38.5735265 14.3488145,37.7431561 L0.627564511,24.1276005" id="Imported-Layers" fill="#1BB999" sketch:type="MSShapeGroup"></path>
    </g>
</svg>