<?xml version="1.0" encoding="utf-8"?>
<!-- Generator: Adobe Illustrator 17.0.2, SVG Export Plug-In . SVG Version: 6.00 Build 0)  -->
<!DOCTYPE svg PUBLIC "-//W3C//DTD SVG 1.1//EN" "http://www.w3.org/Graphics/SVG/1.1/DTD/svg11.dtd">
<svg version="1.1" id="Layer_1" xmlns:sketch="http://www.bohemiancoding.com/sketch/ns"
	 xmlns="http://www.w3.org/2000/svg" xmlns:xlink="http://www.w3.org/1999/xlink" x="0px" y="0px" width="40px" height="41px"
	 viewBox="0 0 40 41" enable-background="new 0 0 40 41" xml:space="preserve">
<title>wifi-icon</title>
<description>Created with Sketch (http://www.bohemiancoding.com/sketch)</description>
<g id="Page-1" sketch:type="MSPage">
	<g id="Top-Bar" transform="translate(-43.000000, -37.000000)" sketch:type="MSLayerGroup">
		<g id="WFI" transform="translate(43.000000, 38.000000)" sketch:type="MSShapeGroup">
			<path id="Fill-1" fill="#70727E" d="M9.633,30.277c-1.695-1.681-3.667-3.082-5.885-4.159c-0.873-0.416-2.22,0.138-3.02,1.241
				c-0.804,1.098-0.755,2.33,0.116,2.749l-0.008,0.007c1.978,0.95,3.741,2.205,5.242,3.717c1.526,1.513,2.777,3.305,3.752,5.307
				c0.416,0.871,1.656,0.907,2.766,0.102c0.156-0.113,0.299-0.238,0.433-0.372c0.803-0.804,1.158-1.908,0.803-2.651
				C12.739,33.981,11.328,31.989,9.633,30.277"/>
			<path id="Fill-2" fill="#70727E" d="M40.019,32.12c-1.531-8.66-5.237-15.957-10.743-21.462
				C23.777,5.157,16.482,1.454,7.818-0.081c-1.02-0.182-2.334,0.629-2.932,1.789C4.277,2.872,4.612,3.962,5.625,4.142l-0.01,0.007
				c8.129,1.432,14.941,4.913,20.098,10.07c5.162,5.16,8.645,11.976,10.074,20.102c0.178,1.017,1.27,1.348,2.447,0.736
				c0.319-0.17,0.608-0.388,0.855-0.635C39.76,33.753,40.145,32.858,40.019,32.12"/>
			<path id="Fill-3" fill="#70727E" d="M19.344,20.55c-3.248-3.247-7.28-5.714-11.963-7.194c-0.947-0.301-2.286,0.384-2.989,1.521
				c-0.71,1.132-0.521,2.305,0.423,2.605c4.283,1.366,7.99,3.625,10.981,6.617c3.005,3.006,5.27,6.754,6.661,11.071
				c0.301,0.942,1.475,1.133,2.613,0.417c0.239-0.147,0.453-0.319,0.643-0.51c0.739-0.739,1.121-1.741,0.883-2.494
				C25.07,27.898,22.613,23.82,19.344,20.55"/>
		</g>
	</g>
</g>
</svg>
